<?xml version="1.0" standalone="no"?>
<!DOCTYPE svg PUBLIC "-//W3C//DTD SVG 20010904//EN"
 "http://www.w3.org/TR/2001/REC-SVG-20010904/DTD/svg10.dtd">
<svg version="1.0" xmlns="http://www.w3.org/2000/svg"
 width="160.000000pt" height="55.000000pt" viewBox="0 0 160.000000 55.000000"
 preserveAspectRatio="xMidYMid meet">

<g transform="translate(0.000000,55.000000) scale(0.100000,-0.100000)"
fill="#000000" stroke="none">
<path d="M116 489 c-37 -43 -54 -80 -67 -138 -19 -90 13 -152 106 -199 22 -12
34 -21 27 -22 -23 0 -86 37 -117 69 -42 45 -47 128 -13 229 14 39 23 72 21 72
-10 0 -55 -109 -63 -152 -14 -72 8 -148 53 -181 39 -29 66 -39 177 -68 64 -17
92 -30 113 -52 27 -29 27 -29 27 -5 0 38 -25 64 -113 117 -87 52 -112 75 -146
131 -29 48 -27 121 3 183 13 26 22 47 20 47 -1 0 -14 -14 -28 -31z"/>
<path d="M357 475 c-12 -17 -28 -25 -47 -25 -16 0 -32 -4 -35 -10 -3 -5 -15
-10 -26 -10 -12 0 -19 -7 -19 -20 0 -11 -5 -20 -11 -20 -5 0 -8 -4 -5 -8 3 -5
-7 -19 -21 -32 -16 -14 -22 -25 -16 -27 8 -3 10 -16 7 -36 -4 -22 -3 -28 4
-19 7 10 14 5 30 -22 12 -19 50 -54 86 -78 45 -29 73 -56 87 -83 l21 -40 -7
39 c-8 47 -28 80 -66 107 -30 21 -35 35 -20 58 13 20 80 -4 91 -34 11 -30 20
-34 48 -24 27 10 28 29 2 97 -11 29 -20 60 -20 71 0 10 -9 26 -20 36 -12 11
-20 31 -20 49 0 24 -3 27 -10 16 -10 -16 -14 -8 -11 23 3 22 0 21 -22 -8z"/>
<path d="M540 431 c0 -5 10 -11 23 -13 20 -3 22 -9 25 -65 2 -47 7 -63 17 -63
12 0 15 15 15 65 0 58 2 65 20 65 11 0 20 5 20 10 0 6 -27 10 -60 10 -33 0
-60 -4 -60 -9z"/>
<path d="M722 381 c2 -33 10 -66 17 -75 17 -21 75 -21 95 0 22 22 23 134 1
134 -11 0 -15 -13 -15 -54 0 -56 -15 -81 -43 -70 -18 6 -27 35 -27 87 0 27 -4
37 -16 37 -14 0 -16 -10 -12 -59z"/>
<path d="M930 365 l0 -75 40 0 c22 0 40 5 40 10 0 6 -11 10 -25 10 -24 0 -25
2 -25 65 0 51 -3 65 -15 65 -12 0 -15 -15 -15 -75z"/>
<path d="M1075 365 c0 -65 2 -75 18 -75 11 0 17 8 17 24 0 18 7 26 27 31 38 9
53 23 53 49 0 33 -19 46 -69 46 l-46 0 0 -75z m80 30 c0 -13 -8 -21 -22 -23
-19 -3 -23 1 -23 23 0 22 4 26 23 23 14 -2 22 -10 22 -23z"/>
<path d="M1280 378 c-13 -35 -25 -69 -27 -75 -3 -7 2 -13 11 -13 9 0 19 7 22
15 4 9 19 15 40 15 24 0 34 -5 34 -15 0 -8 9 -15 20 -15 18 0 18 3 -8 75 -22
61 -31 75 -48 75 -17 0 -26 -13 -44 -62z m48 -36 c-27 -5 -30 1 -17 34 l11 29
13 -30 c12 -27 12 -30 -7 -33z"/>
<path d="M1470 365 c0 -59 3 -75 14 -75 9 0 16 12 18 33 l4 32 19 -32 c11 -18
28 -33 38 -33 16 0 16 2 1 25 -15 24 -15 27 0 44 19 21 21 52 4 69 -7 7 -31
12 -55 12 l-43 0 0 -75z m78 28 c3 -19 -1 -23 -22 -23 -21 0 -26 5 -26 26 0
21 4 25 23 22 14 -2 23 -11 25 -25z"/>
<path d="M550 221 c0 -5 7 -28 15 -51 8 -23 12 -53 9 -66 -5 -18 -2 -24 10
-24 9 0 16 8 16 19 0 10 16 42 35 71 40 59 40 60 21 60 -8 0 -23 -13 -33 -30
-9 -16 -20 -30 -24 -30 -4 0 -9 14 -12 30 -4 18 -13 30 -22 30 -8 0 -15 -4
-15 -9z"/>
<path d="M740 163 c-19 -38 -36 -71 -38 -75 -2 -5 3 -8 11 -8 8 0 17 7 21 15
3 9 19 15 41 15 24 0 35 -4 35 -15 0 -8 7 -15 15 -15 18 0 18 5 3 86 -10 55
-15 64 -33 64 -16 0 -29 -16 -55 -67z m60 -3 c0 -23 -4 -30 -20 -30 -23 0 -24
1 -8 35 15 34 28 32 28 -5z"/>
<path d="M920 220 c0 -5 14 -10 30 -10 17 0 30 -3 30 -6 0 -3 -18 -26 -40 -51
-54 -61 -52 -73 10 -73 35 0 50 4 50 13 0 9 -10 12 -30 9 -40 -6 -38 6 10 61
22 25 40 50 40 56 0 7 -20 11 -50 11 -27 0 -50 -4 -50 -10z"/>
<path d="M1076 178 c-4 -29 -10 -63 -13 -75 -4 -16 -1 -23 10 -23 11 0 18 18
26 63 14 81 14 87 -3 87 -9 0 -16 -18 -20 -52z"/>
<path d="M1174 193 c-3 -21 -10 -55 -14 -75 l-8 -38 38 0 c22 0 42 5 45 10 4
6 -5 10 -21 10 -26 0 -26 1 -20 48 4 26 9 55 12 65 4 11 0 17 -10 17 -10 0
-17 -13 -22 -37z"/>
<path d="M1306 178 c-4 -29 -10 -63 -13 -75 -4 -16 -1 -23 10 -23 11 0 18 18
26 63 14 81 14 87 -3 87 -9 0 -16 -18 -20 -52z"/>
<path d="M1405 208 c-18 -86 -22 -128 -10 -128 16 0 25 23 25 61 0 45 18 34
26 -16 4 -29 11 -45 20 -45 8 0 24 20 36 45 20 41 43 63 34 33 -14 -45 -15
-78 -2 -78 15 0 22 19 32 98 6 47 5 52 -13 52 -14 0 -27 -15 -43 -50 -13 -28
-27 -50 -31 -50 -8 0 -29 64 -29 88 0 22 -39 13 -45 -10z"/>
</g>
</svg>
